<svg width="174" height="13" viewBox="0 0 174 13" fill="none" xmlns="http://www.w3.org/2000/svg">
	<g clip-path="url(#clip0_1267_232)">
		<path
			d="M62.9624 13C58.5436 13 55.6774 9.91254 55.6774 6.69914V6.30086C55.6774 3.03299 58.5436 0 62.9624 0C67.3812 0 70.272 3.03299 70.272 6.30086V6.69914C70.272 9.91254 67.4058 13 62.9624 13ZM67.9081 6.3349C67.9081 3.99293 66.1518 1.90966 62.9624 1.90966C59.773 1.90966 58.0449 3.99633 58.0449 6.3349V6.62765C58.0449 8.96963 59.8011 11.0937 62.9624 11.0937C66.1237 11.0937 67.9081 8.96963 67.9081 6.62765V6.3349Z"
			fill="#010101"/>
		<path
			d="M13.0386 12.5268L11.3912 9.53129H4.06402L2.45878 12.5268H0L6.74409 0.435716H8.69356L15.5501 12.5268H13.0386V12.5268ZM7.66087 2.79471L4.94567 7.88034H10.4709L7.66087 2.79471V2.79471ZM26.1896 13C21.7111 13 19.6316 10.6376 19.6316 7.49908V0.435716H21.9569V7.53312C21.9569 9.76617 23.4744 11.0937 26.3582 11.0937C29.3192 11.0937 30.5346 9.76617 30.5346 7.53312V0.435716H32.8775V7.48887C32.8775 10.4946 30.9104 13 26.1896 13ZM45.916 2.32495V12.5371H43.5732V2.32495H38.1217V0.435716H51.3675V2.32495H45.916ZM91.1401 12.5268V2.9581L90.5219 4.01335L85.2952 12.5234H84.1536L78.9832 4.01335L78.365 2.9581V12.5268H76.0783V0.435716H79.3204L84.2379 8.73134L84.821 9.75255L85.4006 8.73134L90.2725 0.435716H93.4759V12.5268H91.1401ZM111.186 12.5268L109.535 9.53129H102.215L100.624 12.5268H98.1652L104.909 0.435716H106.855L113.694 12.5268H111.186V12.5268ZM105.809 2.79471L103.093 7.88034H108.619L105.809 2.79471V2.79471ZM123.136 2.32495V12.5371H120.797V2.32495H115.345V0.435716H128.587V2.32495H123.136ZM140.316 2.32495V12.5371H137.973V2.32495H132.521V0.435716H145.771V2.32495H140.316ZM151.538 12.5268V1.57947C152.473 1.57947 152.849 1.08929 152.849 0.435716H153.85V12.5268H151.538ZM172.182 3.84996C170.837 2.60883 169.054 1.91336 167.197 1.90626C163.864 1.90626 161.988 4.12228 161.988 6.42681V6.66169C161.988 8.9492 163.881 11.0869 167.366 11.0869C169.189 11.0537 170.933 10.3603 172.255 9.14323L173.66 10.5763C171.908 12.1594 169.593 13.0273 167.197 13C162.476 13 159.61 10.0215 159.61 6.7536V6.35533C159.61 3.08746 162.74 0 167.31 0C169.951 0 172.35 1.07227 173.632 2.41346L172.182 3.84996V3.84996ZM63.2512 4.48413L61.106 7.70435C60.9756 7.89999 60.9308 8.13782 60.9813 8.36553C61.0318 8.59323 61.1736 8.79217 61.3755 8.91857L61.3786 8.92027C61.4786 8.98283 61.5903 9.0257 61.7074 9.04642C61.8245 9.06714 61.9446 9.06531 62.061 9.04103C62.1773 9.01676 62.2876 8.97051 62.3855 8.90493C62.4834 8.83936 62.567 8.75573 62.6315 8.65884L64.777 5.43862C64.9073 5.24297 64.952 5.00519 64.9015 4.77756C64.8509 4.54993 64.7091 4.35109 64.5072 4.22474L64.5041 4.2227C64.4041 4.16014 64.2924 4.11727 64.1753 4.09655C64.0582 4.07583 63.9381 4.07766 63.8218 4.10194C63.7054 4.12621 63.5951 4.17246 63.4972 4.23804C63.3993 4.30361 63.3157 4.38724 63.2512 4.48413V4.48413Z"
			fill="#010101"/>
	</g>
	<defs>
		<clipPath id="clip0_1267_232">
			<rect width="173.643" height="13" fill="white"/>
		</clipPath>
	</defs>
</svg>