<svg width="32" height="32" viewBox="0 0 32 32" fill="none" xmlns="http://www.w3.org/2000/svg">
<path d="M24.6667 16.0001H22.3333L25.6667 20.0001L29 16.0001H26.6667C26.6667 13.5925 25.8521 11.2557 24.3556 9.36977C22.859 7.48381 20.7684 6.15961 18.4238 5.61253C16.0792 5.06545 13.6184 5.32767 11.4417 6.35653C9.26502 7.3854 7.50042 9.12039 6.43487 11.2794C5.36932 13.4383 5.0655 15.8943 5.57283 18.2478C6.08016 20.6014 7.36879 22.7141 9.22916 24.2424C11.0895 25.7706 13.4122 26.6246 15.8195 26.6653C18.2267 26.7061 20.577 25.9312 22.488 24.4668L21.2787 22.8748C19.7269 24.0665 17.8176 24.698 15.8613 24.6667C13.9051 24.6354 12.0169 23.9431 10.5041 22.7024C8.9913 21.4617 7.94281 19.7456 7.5292 17.8333C7.11559 15.921 7.36122 13.925 8.22611 12.17C9.09101 10.415 10.5243 9.00434 12.2928 8.16742C14.0613 7.3305 16.0609 7.1166 17.9664 7.56052C19.8719 8.00444 21.5711 9.08006 22.7877 10.6124C24.0042 12.1447 24.6664 14.0436 24.6667 16.0001Z" fill="#101116"/>
<path d="M20.04 18.6268L17 15.5868V11.3335C17 11.0683 16.8946 10.8139 16.7071 10.6264C16.5196 10.4389 16.2652 10.3335 16 10.3335C15.7348 10.3335 15.4804 10.4389 15.2929 10.6264C15.1054 10.8139 15 11.0683 15 11.3335V16.0002C14.9997 16.1311 15.0253 16.2607 15.0751 16.3818C15.125 16.5028 15.1982 16.6128 15.2907 16.7055L18.6267 20.0415C18.719 20.137 18.8293 20.2131 18.9514 20.2654C19.0734 20.3178 19.2046 20.3453 19.3374 20.3464C19.4702 20.3475 19.6019 20.3221 19.7247 20.2718C19.8476 20.2215 19.9592 20.1472 20.0531 20.0532C20.1469 19.9593 20.2211 19.8476 20.2713 19.7247C20.3216 19.6018 20.3468 19.4701 20.3456 19.3373C20.3444 19.2045 20.3167 19.0733 20.2643 18.9513C20.2118 18.8293 20.1356 18.719 20.04 18.6268Z" fill="#101116"/>
</svg>
