<svg width="32" height="32" viewBox="0 0 32 32" fill="none" xmlns="http://www.w3.org/2000/svg">
<path d="M26.6665 8H5.33317C3.8665 8 2.6665 9.2 2.6665 10.6667V22.6667C2.6665 24.1333 3.8665 25.3333 5.33317 25.3333H26.6665C28.1332 25.3333 29.3332 24.1333 29.3332 22.6667V10.6667C29.3332 9.2 28.1332 8 26.6665 8ZM27.3332 22.6667C27.3332 23.0667 27.0665 23.3333 26.6665 23.3333H5.33317C4.93317 23.3333 4.6665 23.0667 4.6665 22.6667V10.6667C4.6665 10.2667 4.93317 10 5.33317 10H26.6665C27.0665 10 27.3332 10.2667 27.3332 10.6667V22.6667ZM13.3332 13.3333H10.6665V16H13.3332V13.3333ZM6.6665 16H9.33317V13.3333H6.6665V16ZM17.3332 13.3333H14.6665V16H17.3332V13.3333ZM10.6665 21.3333H21.3332V18.6667H10.6665V21.3333ZM18.6665 16H21.3332V13.3333H18.6665V16ZM22.6665 16H25.3332V13.3333H22.6665V16ZM22.6665 21.3333H25.3332V18.6667H22.6665V21.3333ZM6.6665 21.3333H9.33317V18.6667H6.6665V21.3333Z" fill="#101116"/>
</svg>
