<svg width="32" height="32" viewBox="0 0 32 32" fill="none" xmlns="http://www.w3.org/2000/svg">
  <path
    d="M9.3093 17.7086C9.3093 17.7086 9.00944 18.0927 9.00944 18.8307C9.00944 22.8631 12.1392 26.132 16 26.132C19.8608 26.132 22.9906 22.8631 22.9906 18.8307C22.9906 18.0927 22.6907 17.7086 22.6907 17.7086L17.7572 19.1247C16.6089 19.4543 15.3911 19.4543 14.2428 19.1247L9.3093 17.7086Z"
    fill="black" />
  <path
    d="M9.56485 15.9739C10.6294 13.3613 13.1099 11.5295 16 11.5295C18.8901 11.5295 21.3706 13.3613 22.4352 15.9739L17.5429 17.3781C16.5347 17.6675 15.4653 17.6675 14.4571 17.3781L9.56485 15.9739Z"
    fill="black" />
  <path
    d="M15.7622 8.62123C15.9145 8.55816 16.0855 8.55816 16.2378 8.62123L27.6164 13.3344C28.1598 13.5595 28.1153 14.3435 27.55 14.5057L19.0001 16.9599C17.0396 17.5226 14.9604 17.5226 12.9999 16.9599L4.44999 14.5057C3.88465 14.3435 3.84024 13.5595 4.38363 13.3344L15.7622 8.62123Z"
    fill="black" />
  <path
    d="M9.34717 7.10198C9.5562 5.76463 10.7969 4.84042 12.1381 5.02299L14.5 5.5C15.6124 5.65143 16.7402 5.65143 17.8526 5.5L19.8619 5.02299C21.2031 4.84042 22.4438 5.76463 22.6528 7.10198L23.6119 13.2383H8.38806L9.34717 7.10198Z"
    fill="black" />
</svg>