<svg width="32" height="32" viewBox="0 0 32 32" fill="none" xmlns="http://www.w3.org/2000/svg">
<path d="M26.3332 12C26.3332 10.324 25.5798 9.07069 24.4798 8.18936C23.4172 7.33603 22.0438 6.83336 20.7265 6.52669C18.3238 5.96669 15.7892 5.98936 14.8825 5.99869L14.6665 6.00003V8.00003L14.9025 7.99869C15.8305 7.99069 18.1238 7.97203 20.2732 8.47336C21.4558 8.74936 22.4998 9.16403 23.2278 9.74936C23.9212 10.304 24.3332 11.0094 24.3332 12C24.3332 12.7894 24.1105 13.288 23.7905 13.64C23.4505 14.0147 22.9158 14.3174 22.1425 14.5387C20.5558 14.992 18.3825 15 15.9998 15H15.8972C13.6412 15 11.1945 15 9.30784 15.5387C8.33184 15.8174 7.40917 16.2654 6.72784 17.016C6.0265 17.788 5.6665 18.7894 5.6665 20C5.6665 21.676 6.41984 22.9294 7.51984 23.8107C8.5825 24.664 9.95584 25.1667 11.2732 25.4734C13.6758 26.0334 16.2105 26.0107 17.1172 26.0014L17.3332 26H18.2852V29.3334L23.9998 24.6667L18.2852 20V24H17.3332L17.0972 24.0014C16.1692 24.0094 13.8758 24.028 11.7265 23.5267C10.5438 23.2507 9.49984 22.836 8.77184 22.2507C8.0785 21.696 7.6665 20.9907 7.6665 20C7.6665 19.2107 7.88917 18.712 8.20917 18.36C8.54917 17.9854 9.08384 17.6827 9.8585 17.4614C11.4438 17.008 13.6172 17 15.9998 17H16.1025C18.3585 17 20.8052 17 22.6905 16.4614C23.6665 16.1827 24.5905 15.7347 25.2718 14.984C25.9732 14.212 26.3332 13.2107 26.3332 12Z" fill="#101116"/>
</svg>
